ffmpeg started on 2026-01-06 at 12:00:43
Report written to "D:\Convert\FFMetrics\reports\psnr_report-6.txt"
Log level: 32
Command line:
ffmpeg -hide_banner -nostdin -r 24000/1001 -i "F:\\Convert\\files\\Nanatsu_no_Maken_ga_Shihai_suru_[02]_[AniLibria_TV]_[WEBRip_1080p]_HEVC(57).mkv" -r 24000/1001 -i "F:\\Convert\\files\\Nanatsu_no_Maken_ga_Shihai_suru_[02]_[AniLibria_TV]_[WEBRip_1080p].mkv" -lavfi "[0:v]settb=AVTB,setpts=PTS-STARTPTS,format=pix_fmts=yuv420p10le,fps=24000/1001,scale=1920:1080:flags=bicubic[main];[1:v]settb=AVTB,setpts=PTS-STARTPTS,format=pix_fmts=yuv420p,fps=24000/1001,scale=1920:1080:flags=bicubic[ref];[main][ref]psnr=eof_action=endall:stats_file='D\\:/Convert/FFMetrics/logs/psnr_logfile-6.txt'" -f null -
Input #0, matroska,webm, from 'F:\Convert\files\Nanatsu_no_Maken_ga_Shihai_suru_[02]_[AniLibria_TV]_[WEBRip_1080p]_HEVC(57).mkv':
  Metadata:
    ENCODER         : Lavf61.7.100
  Duration: 00:23:40.14, start: -0.021000, bitrate: 1195 kb/s
  Stream #0:0: Video: hevc (Main 10), yuv420p10le(tv, bt709, progressive), 1920x1080 [SAR 1:1 DAR 16:9], 23.98 fps, 23.98 tbr, 1k tbn (default)
      Metadata:
        title           : Original
        ENCODER         : Lavc61.19.100 libx265
        BPS             : 955895
        DURATION        : 00:23:40.043708333
        NUMBER_OF_FRAMES: 34047
        NUMBER_OF_BYTES : 169676590
        _STATISTICS_WRITING_APP: mkvpropedit v94.0 ('Initiate') 64-bit
        _STATISTICS_WRITING_DATE_UTC: 2026-01-05 16:37:29
        _STATISTICS_TAGS: BPS DURATION NUMBER_OF_FRAMES NUMBER_OF_BYTES
  Stream #0:1(rus): Audio: aac (LC), 48000 Hz, stereo, fltp (default)
      Metadata:
        title           : AniLibria.TV
        ENCODER         : Lavc61.19.100 aac
        BPS             : 194075
        DURATION        : 00:23:40.117000000
        NUMBER_OF_FRAMES: 66569
        NUMBER_OF_BYTES : 34451214
        _STATISTICS_WRITING_APP: mkvpropedit v94.0 ('Initiate') 64-bit
        _STATISTICS_WRITING_DATE_UTC: 2026-01-05 16:37:29
        _STATISTICS_TAGS: BPS DURATION NUMBER_OF_FRAMES NUMBER_OF_BYTES
  Stream #0:2(rus): Subtitle: ass (ssa) (default)
      Metadata:
        title           : Надписи
        BPS             : 340
        DURATION        : 00:22:14.570000000
        NUMBER_OF_FRAMES: 381
        NUMBER_OF_BYTES : 56799
        _STATISTICS_WRITING_APP: mkvpropedit v94.0 ('Initiate') 64-bit
        _STATISTICS_WRITING_DATE_UTC: 2026-01-05 16:37:29
        _STATISTICS_TAGS: BPS DURATION NUMBER_OF_FRAMES NUMBER_OF_BYTES
  Stream #0:3(rus): Subtitle: ass (ssa)
      Metadata:
        title           : Субтитры
        BPS             : 489
        DURATION        : 00:23:37.340000000
        NUMBER_OF_FRAMES: 749
        NUMBER_OF_BYTES : 86800
        _STATISTICS_WRITING_APP: mkvpropedit v94.0 ('Initiate') 64-bit
        _STATISTICS_WRITING_DATE_UTC: 2026-01-05 16:37:29
        _STATISTICS_TAGS: BPS DURATION NUMBER_OF_FRAMES NUMBER_OF_BYTES
  Stream #0:4: Attachment: ttf
      Metadata:
        filename        : AGPMOD.TTF
        mimetype        : application/x-truetype-font
  Stream #0:5: Attachment: ttf
      Metadata:
        filename        : DFPSNGyosho-W5-CP-Spec.ttf
        mimetype        : application/x-truetype-font
  Stream #0:6: Attachment: ttf
      Metadata:
        filename        : Modernist One.ttf
        mimetype        : application/x-truetype-font
  Stream #0:7: Attachment: ttf
      Metadata:
        filename        : 1125177.TTF
        mimetype        : application/x-truetype-font
  Stream #0:8: Attachment: ttf
      Metadata:
        filename        : Roboto-Medium.ttf
        mimetype        : application/x-truetype-font
  Stream #0:9: Attachment: ttf
      Metadata:
        filename        : Roboto-MediumItalic.ttf
        mimetype        : application/x-truetype-font
  Stream #0:10: Attachment: ttf
      Metadata:
        filename        : arial.ttf
        mimetype        : application/x-truetype-font
  Stream #0:11: Attachment: ttf
      Metadata:
        filename        : arialbd.ttf
        mimetype        : application/x-truetype-font
  Stream #0:12: Attachment: ttf
      Metadata:
        filename        : comic.ttf
        mimetype        : application/x-truetype-font
  Stream #0:13: Attachment: ttf
      Metadata:
        filename        : comicbd.ttf
        mimetype        : application/x-truetype-font
  Stream #0:14: Attachment: ttf
      Metadata:
        filename        : times.ttf
        mimetype        : application/x-truetype-font
  Stream #0:15: Attachment: ttf
      Metadata:
        filename        : timesbd.ttf
        mimetype        : application/x-truetype-font
  Stream #0:16: Attachment: ttf
      Metadata:
        filename        : trebuc.ttf
        mimetype        : application/x-truetype-font
  Stream #0:17: Attachment: ttf
      Metadata:
        filename        : trebucbd.ttf
        mimetype        : application/x-truetype-font
  Stream #0:18: Attachment: ttf
      Metadata:
        filename        : verdana.ttf
        mimetype        : application/x-truetype-font
  Stream #0:19: Attachment: ttf
      Metadata:
        filename        : verdanab.ttf
        mimetype        : application/x-truetype-font
  Stream #0:20: Attachment: ttf
      Metadata:
        filename        : CONSOLA.TTF
        mimetype        : application/x-truetype-font
  Stream #0:21: Attachment: ttf
      Metadata:
        filename        : CONSOLAB.TTF
        mimetype        : application/x-truetype-font
Input #1, matroska,webm, from 'F:\Convert\files\Nanatsu_no_Maken_ga_Shihai_suru_[02]_[AniLibria_TV]_[WEBRip_1080p].mkv':
  Metadata:
    encoder         : libebml v1.4.4 + libmatroska v1.7.1
    creation_time   : 2023-07-15T11:47:58.000000Z
  Duration: 00:23:40.12, start: 0.000000, bitrate: 8335 kb/s
  Stream #1:0: Video: h264 (High), yuv420p(tv, bt709, progressive), 1920x1080 [SAR 1:1 DAR 16:9], 23.98 fps, 23.98 tbr, 1k tbn (default)
      Metadata:
        title           : Original
        BPS             : 7971709
        DURATION        : 00:23:40.045000000
        NUMBER_OF_FRAMES: 34047
        NUMBER_OF_BYTES : 1415023222
        _STATISTICS_WRITING_APP: mkvmerge v77.0 ('Elemental') 64-bit
        _STATISTICS_WRITING_DATE_UTC: 2023-07-15 11:47:58
        _STATISTICS_TAGS: BPS DURATION NUMBER_OF_FRAMES NUMBER_OF_BYTES
  Stream #1:1(rus): Audio: aac (LC), 48000 Hz, stereo, fltp (default)
      Metadata:
        title           : AniLibria.TV
        BPS             : 191999
        DURATION        : 00:23:40.117000000
        NUMBER_OF_FRAMES: 66568
        NUMBER_OF_BYTES : 34082731
        _STATISTICS_WRITING_APP: mkvmerge v77.0 ('Elemental') 64-bit
        _STATISTICS_WRITING_DATE_UTC: 2023-07-15 11:47:58
        _STATISTICS_TAGS: BPS DURATION NUMBER_OF_FRAMES NUMBER_OF_BYTES
  Stream #1:2(jpn): Audio: aac (LC), 44100 Hz, stereo, fltp
      Metadata:
        title           : Original
        BPS             : 128000
        DURATION        : 00:23:40.109000000
        NUMBER_OF_FRAMES: 61159
        NUMBER_OF_BYTES : 22721748
        _STATISTICS_WRITING_APP: mkvmerge v77.0 ('Elemental') 64-bit
        _STATISTICS_WRITING_DATE_UTC: 2023-07-15 11:47:58
        _STATISTICS_TAGS: BPS DURATION NUMBER_OF_FRAMES NUMBER_OF_BYTES
  Stream #1:3(rus): Subtitle: ass (ssa) (default)
      Metadata:
        title           : Надписи
        BPS             : 340
        DURATION        : 00:22:14.570000000
        NUMBER_OF_FRAMES: 381
        NUMBER_OF_BYTES : 56799
        _STATISTICS_WRITING_APP: mkvmerge v77.0 ('Elemental') 64-bit
        _STATISTICS_WRITING_DATE_UTC: 2023-07-15 11:47:58
        _STATISTICS_TAGS: BPS DURATION NUMBER_OF_FRAMES NUMBER_OF_BYTES
  Stream #1:4(rus): Subtitle: ass (ssa)
      Metadata:
        title           : Субтитры
        BPS             : 489
        DURATION        : 00:23:37.340000000
        NUMBER_OF_FRAMES: 749
        NUMBER_OF_BYTES : 86800
        _STATISTICS_WRITING_APP: mkvmerge v77.0 ('Elemental') 64-bit
        _STATISTICS_WRITING_DATE_UTC: 2023-07-15 11:47:58
        _STATISTICS_TAGS: BPS DURATION NUMBER_OF_FRAMES NUMBER_OF_BYTES
  Stream #1:5: Attachment: ttf
      Metadata:
        filename        : AGPMOD.TTF
        mimetype        : application/x-truetype-font
  Stream #1:6: Attachment: ttf
      Metadata:
        filename        : DFPSNGyosho-W5-CP-Spec.ttf
        mimetype        : application/x-truetype-font
  Stream #1:7: Attachment: ttf
      Metadata:
        filename        : Modernist One.ttf
        mimetype        : application/x-truetype-font
  Stream #1:8: Attachment: ttf
      Metadata:
        filename        : 1125177.TTF
        mimetype        : application/x-truetype-font
  Stream #1:9: Attachment: ttf
      Metadata:
        filename        : Roboto-Medium.ttf
        mimetype        : application/x-truetype-font
  Stream #1:10: Attachment: ttf
      Metadata:
        filename        : Roboto-MediumItalic.ttf
        mimetype        : application/x-truetype-font
  Stream #1:11: Attachment: ttf
      Metadata:
        filename        : arial.ttf
        mimetype        : application/x-truetype-font
  Stream #1:12: Attachment: ttf
      Metadata:
        filename        : arialbd.ttf
        mimetype        : application/x-truetype-font
  Stream #1:13: Attachment: ttf
      Metadata:
        filename        : comic.ttf
        mimetype        : application/x-truetype-font
  Stream #1:14: Attachment: ttf
      Metadata:
        filename        : comicbd.ttf
        mimetype        : application/x-truetype-font
  Stream #1:15: Attachment: ttf
      Metadata:
        filename        : times.ttf
        mimetype        : application/x-truetype-font
  Stream #1:16: Attachment: ttf
      Metadata:
        filename        : timesbd.ttf
        mimetype        : application/x-truetype-font
  Stream #1:17: Attachment: ttf
      Metadata:
        filename        : trebuc.ttf
        mimetype        : application/x-truetype-font
  Stream #1:18: Attachment: ttf
      Metadata:
        filename        : trebucbd.ttf
        mimetype        : application/x-truetype-font
  Stream #1:19: Attachment: ttf
      Metadata:
        filename        : verdana.ttf
        mimetype        : application/x-truetype-font
  Stream #1:20: Attachment: ttf
      Metadata:
        filename        : verdanab.ttf
        mimetype        : application/x-truetype-font
  Stream #1:21: Attachment: ttf
      Metadata:
        filename        : CONSOLA.TTF
        mimetype        : application/x-truetype-font
  Stream #1:22: Attachment: ttf
      Metadata:
        filename        : CONSOLAB.TTF
        mimetype        : application/x-truetype-font
Stream mapping:
  Stream #0:0 (hevc) -> settb:default
  Stream #1:0 (h264) -> settb:default
  psnr:default -> Stream #0:0 (wrapped_avframe)
  Stream #0:1 -> #0:1 (aac (native) -> pcm_s16le (native))
Output #0, null, to 'pipe:':
  Metadata:
    encoder         : Lavf61.7.100
  Stream #0:0: Video: wrapped_avframe, yuv420p10le(tv, bt709, progressive), 1920x1080 [SAR 1:1 DAR 16:9], q=2-31, 200 kb/s, 23.98 fps, 23.98 tbn
      Metadata:
        encoder         : Lavc61.19.100 wrapped_avframe
  Stream #0:1(rus): Audio: pcm_s16le, 48000 Hz, stereo, s16, 1536 kb/s (default)
      Metadata:
        title           : AniLibria.TV
        _STATISTICS_TAGS: BPS DURATION NUMBER_OF_FRAMES NUMBER_OF_BYTES
        BPS             : 194075
        DURATION        : 00:23:40.117000000
        NUMBER_OF_FRAMES: 66569
        NUMBER_OF_BYTES : 34451214
        _STATISTICS_WRITING_APP: mkvpropedit v94.0 ('Initiate') 64-bit
        _STATISTICS_WRITING_DATE_UTC: 2026-01-05 16:37:29
        encoder         : Lavc61.19.100 pcm_s16le
frame=  189 fps=0.0 q=-0.0 size=N/A time=00:00:07.88 bitrate=N/A speed=14.9x    frame=  462 fps=437 q=-0.0 size=N/A time=00:00:19.26 bitrate=N/A speed=18.2x    frame=  737 fps=470 q=-0.0 size=N/A time=00:00:30.73 bitrate=N/A speed=19.6x    frame= 1019 fps=490 q=-0.0 size=N/A time=00:00:42.50 bitrate=N/A speed=20.4x    frame= 1295 fps=497 q=-0.0 size=N/A time=00:00:54.01 bitrate=N/A speed=20.7x    frame= 1558 fps=500 q=-0.0 size=N/A time=00:01:04.98 bitrate=N/A speed=20.8x    frame= 1834 fps=506 q=-0.0 size=N/A time=00:01:16.49 bitrate=N/A speed=21.1x    frame= 2095 fps=504 q=-0.0 size=N/A time=00:01:27.37 bitrate=N/A speed=  21x    frame= 2289 fps=489 q=-0.0 size=N/A time=00:01:35.47 bitrate=N/A speed=20.4x    frame= 2506 fps=483 q=-0.0 size=N/A time=00:01:44.52 bitrate=N/A speed=20.1x    frame= 2725 fps=478 q=-0.0 size=N/A time=00:01:53.65 bitrate=N/A speed=19.9x    frame= 2933 fps=471 q=-0.0 size=N/A time=00:02:02.33 bitrate=N/A speed=19.6x    frame= 3101 fps=460 q=-0.0 size=N/A time=00:02:09.33 bitrate=N/A speed=19.2x    frame= 3292 fps=454 q=-0.0 size=N/A time=00:02:17.30 bitrate=N/A speed=18.9x    frame= 3490 fps=449 q=-0.0 size=N/A time=00:02:25.56 bitrate=N/A speed=18.7x    frame= 3689 fps=445 q=-0.0 size=N/A time=00:02:33.86 bitrate=N/A speed=18.6x    frame= 3921 fps=446 q=-0.0 size=N/A time=00:02:43.53 bitrate=N/A speed=18.6x    frame= 4120 fps=442 q=-0.0 size=N/A time=00:02:51.83 bitrate=N/A speed=18.5x    frame= 4367 fps=444 q=-0.0 size=N/A time=00:03:02.14 bitrate=N/A speed=18.5x    frame= 4637 fps=448 q=-0.0 size=N/A time=00:03:13.40 bitrate=N/A speed=18.7x    frame= 4874 fps=449 q=-0.0 size=N/A time=00:03:23.28 bitrate=N/A speed=18.7x    frame= 5075 fps=446 q=-0.0 size=N/A time=00:03:31.66 bitrate=N/A speed=18.6x    frame= 5221 fps=439 q=-0.0 size=N/A time=00:03:37.75 bitrate=N/A speed=18.3x    frame= 5471 fps=441 q=-0.0 size=N/A time=00:03:48.18 bitrate=N/A speed=18.4x    frame= 5715 fps=442 q=-0.0 size=N/A time=00:03:58.36 bitrate=N/A speed=18.4x    frame= 5996 fps=446 q=-0.0 size=N/A time=00:04:10.08 bitrate=N/A speed=18.6x    frame= 6287 fps=450 q=-0.0 size=N/A time=00:04:22.22 bitrate=N/A speed=18.8x    frame= 6544 fps=452 q=-0.0 size=N/A time=00:04:32.93 bitrate=N/A speed=18.9x    frame= 6824 fps=455 q=-0.0 size=N/A time=00:04:44.61 bitrate=N/A speed=  19x    frame= 7099 fps=458 q=-0.0 size=N/A time=00:04:56.08 bitrate=N/A speed=19.1x    frame= 7359 fps=459 q=-0.0 size=N/A time=00:05:06.93 bitrate=N/A speed=19.2x    frame= 7612 fps=461 q=-0.0 size=N/A time=00:05:17.48 bitrate=N/A speed=19.2x    frame= 7919 fps=464 q=-0.0 size=N/A time=00:05:30.28 bitrate=N/A speed=19.4x    frame= 8161 fps=465 q=-0.0 size=N/A time=00:05:40.38 bitrate=N/A speed=19.4x    frame= 8450 fps=467 q=-0.0 size=N/A time=00:05:52.43 bitrate=N/A speed=19.5x    frame= 8748 fps=470 q=-0.0 size=N/A time=00:06:04.86 bitrate=N/A speed=19.6x    frame= 8960 fps=469 q=-0.0 size=N/A time=00:06:13.70 bitrate=N/A speed=19.5x    frame= 9228 fps=470 q=-0.0 size=N/A time=00:06:24.88 bitrate=N/A speed=19.6x    frame= 9460 fps=469 q=-0.0 size=N/A time=00:06:34.56 bitrate=N/A speed=19.6x    frame= 9748 fps=471 q=-0.0 size=N/A time=00:06:46.57 bitrate=N/A speed=19.7x    frame= 9977 fps=471 q=-0.0 size=N/A time=00:06:56.12 bitrate=N/A speed=19.6x    frame=10196 fps=470 q=-0.0 size=N/A time=00:07:05.25 bitrate=N/A speed=19.6x    frame=10405 fps=468 q=-0.0 size=N/A time=00:07:13.97 bitrate=N/A speed=19.5x    frame=10597 fps=466 q=-0.0 size=N/A time=00:07:21.98 bitrate=N/A speed=19.4x    frame=10790 fps=464 q=-0.0 size=N/A time=00:07:30.03 bitrate=N/A speed=19.4x    frame=10972 fps=461 q=-0.0 size=N/A time=00:07:37.62 bitrate=N/A speed=19.2x    frame=11163 fps=460 q=-0.0 size=N/A time=00:07:45.59 bitrate=N/A speed=19.2x    frame=11397 fps=460 q=-0.0 size=N/A time=00:07:55.34 bitrate=N/A speed=19.2x    frame=11563 fps=457 q=-0.0 size=N/A time=00:08:02.27 bitrate=N/A speed=  19x    frame=11804 fps=457 q=-0.0 size=N/A time=00:08:12.32 bitrate=N/A speed=19.1x    frame=12070 fps=458 q=-0.0 size=N/A time=00:08:23.41 bitrate=N/A speed=19.1x    frame=12324 fps=459 q=-0.0 size=N/A time=00:08:34.01 bitrate=N/A speed=19.1x    frame=12550 fps=458 q=-0.0 size=N/A time=00:08:43.43 bitrate=N/A speed=19.1x    frame=12751 fps=457 q=-0.0 size=N/A time=00:08:51.82 bitrate=N/A speed=19.1x    frame=12992 fps=457 q=-0.0 size=N/A time=00:09:01.87 bitrate=N/A speed=19.1x    frame=13253 fps=458 q=-0.0 size=N/A time=00:09:12.76 bitrate=N/A speed=19.1x    frame=13517 fps=459 q=-0.0 size=N/A time=00:09:23.77 bitrate=N/A speed=19.1x    frame=13775 fps=460 q=-0.0 size=N/A time=00:09:34.53 bitrate=N/A speed=19.2x    frame=14038 fps=461 q=-0.0 size=N/A time=00:09:45.50 bitrate=N/A speed=19.2x    frame=14309 fps=462 q=-0.0 size=N/A time=00:09:56.80 bitrate=N/A speed=19.3x    frame=14565 fps=462 q=-0.0 size=N/A time=00:10:07.48 bitrate=N/A speed=19.3x    frame=14823 fps=463 q=-0.0 size=N/A time=00:10:18.24 bitrate=N/A speed=19.3x    frame=15116 fps=464 q=-0.0 size=N/A time=00:10:30.46 bitrate=N/A speed=19.4x    frame=15374 fps=465 q=-0.0 size=N/A time=00:10:41.22 bitrate=N/A speed=19.4x    frame=15626 fps=466 q=-0.0 size=N/A time=00:10:51.73 bitrate=N/A speed=19.4x    frame=15846 fps=465 q=-0.0 size=N/A time=00:11:00.91 bitrate=N/A speed=19.4x    frame=16116 fps=466 q=-0.0 size=N/A time=00:11:12.17 bitrate=N/A speed=19.4x    frame=16317 fps=465 q=-0.0 size=N/A time=00:11:20.55 bitrate=N/A speed=19.4x    frame=16552 fps=465 q=-0.0 size=N/A time=00:11:30.35 bitrate=N/A speed=19.4x    frame=16760 fps=464 q=-0.0 size=N/A time=00:11:39.03 bitrate=N/A speed=19.3x    frame=16976 fps=463 q=-0.0 size=N/A time=00:11:48.04 bitrate=N/A speed=19.3x    frame=17165 fps=462 q=-0.0 size=N/A time=00:11:55.92 bitrate=N/A speed=19.3x    frame=17401 fps=462 q=-0.0 size=N/A time=00:12:05.76 bitrate=N/A speed=19.3x    frame=17663 fps=462 q=-0.0 size=N/A time=00:12:16.69 bitrate=N/A speed=19.3x    frame=17906 fps=462 q=-0.0 size=N/A time=00:12:26.82 bitrate=N/A speed=19.3x    frame=18105 fps=461 q=-0.0 size=N/A time=00:12:35.12 bitrate=N/A speed=19.2x    frame=18359 fps=462 q=-0.0 size=N/A time=00:12:45.72 bitrate=N/A speed=19.3x    frame=18594 fps=462 q=-0.0 size=N/A time=00:12:55.52 bitrate=N/A speed=19.3x    frame=18814 fps=461 q=-0.0 size=N/A time=00:13:04.70 bitrate=N/A speed=19.2x    frame=19047 fps=461 q=-0.0 size=N/A time=00:13:14.41 bitrate=N/A speed=19.2x    frame=19306 fps=461 q=-0.0 size=N/A time=00:13:25.22 bitrate=N/A speed=19.2x    frame=19557 fps=462 q=-0.0 size=N/A time=00:13:35.68 bitrate=N/A speed=19.3x    frame=19850 fps=463 q=-0.0 size=N/A time=00:13:47.91 bitrate=N/A speed=19.3x    frame=20117 fps=464 q=-0.0 size=N/A time=00:13:59.04 bitrate=N/A speed=19.3x    frame=20381 fps=464 q=-0.0 size=N/A time=00:14:10.05 bitrate=N/A speed=19.4x    frame=20666 fps=465 q=-0.0 size=N/A time=00:14:21.94 bitrate=N/A speed=19.4x    frame=20906 fps=465 q=-0.0 size=N/A time=00:14:31.95 bitrate=N/A speed=19.4x    frame=21172 fps=466 q=-0.0 size=N/A time=00:14:43.04 bitrate=N/A speed=19.4x    frame=21430 fps=466 q=-0.0 size=N/A time=00:14:53.80 bitrate=N/A speed=19.5x    frame=21700 fps=467 q=-0.0 size=N/A time=00:15:05.07 bitrate=N/A speed=19.5x    frame=21940 fps=467 q=-0.0 size=N/A time=00:15:15.08 bitrate=N/A speed=19.5x    frame=22150 fps=466 q=-0.0 size=N/A time=00:15:23.83 bitrate=N/A speed=19.4x    frame=22445 fps=467 q=-0.0 size=N/A time=00:15:36.14 bitrate=N/A speed=19.5x    frame=22751 fps=469 q=-0.0 size=N/A time=00:15:48.90 bitrate=N/A speed=19.5x    frame=23025 fps=469 q=-0.0 size=N/A time=00:16:00.33 bitrate=N/A speed=19.6x    frame=23302 fps=470 q=-0.0 size=N/A time=00:16:11.88 bitrate=N/A speed=19.6x    frame=23583 fps=471 q=-0.0 size=N/A time=00:16:23.60 bitrate=N/A speed=19.6x    frame=23878 fps=472 q=-0.0 size=N/A time=00:16:35.91 bitrate=N/A speed=19.7x    frame=24176 fps=473 q=-0.0 size=N/A time=00:16:48.34 bitrate=N/A speed=19.7x    frame=24479 fps=474 q=-0.0 size=N/A time=00:17:00.97 bitrate=N/A speed=19.8x    frame=24744 fps=474 q=-0.0 size=N/A time=00:17:12.03 bitrate=N/A speed=19.8x    frame=24959 fps=474 q=-0.0 size=N/A time=00:17:20.99 bitrate=N/A speed=19.8x    frame=25235 fps=474 q=-0.0 size=N/A time=00:17:32.50 bitrate=N/A speed=19.8x    frame=25529 fps=475 q=-0.0 size=N/A time=00:17:44.77 bitrate=N/A speed=19.8x    frame=25765 fps=475 q=-0.0 size=N/A time=00:17:54.61 bitrate=N/A speed=19.8x    frame=26007 fps=475 q=-0.0 size=N/A time=00:18:04.70 bitrate=N/A speed=19.8x    frame=26281 fps=476 q=-0.0 size=N/A time=00:18:16.13 bitrate=N/A speed=19.8x    frame=26543 fps=476 q=-0.0 size=N/A time=00:18:27.06 bitrate=N/A speed=19.8x    frame=26794 fps=476 q=-0.0 size=N/A time=00:18:37.53 bitrate=N/A speed=19.9x    frame=27036 fps=476 q=-0.0 size=N/A time=00:18:47.62 bitrate=N/A speed=19.9x    frame=27321 fps=477 q=-0.0 size=N/A time=00:18:59.51 bitrate=N/A speed=19.9x    frame=27609 fps=477 q=-0.0 size=N/A time=00:19:11.52 bitrate=N/A speed=19.9x    frame=27878 fps=478 q=-0.0 size=N/A time=00:19:22.74 bitrate=N/A speed=19.9x    frame=28157 fps=478 q=-0.0 size=N/A time=00:19:34.38 bitrate=N/A speed=19.9x    frame=28455 fps=479 q=-0.0 size=N/A time=00:19:46.81 bitrate=N/A speed=  20x    frame=28733 fps=480 q=-0.0 size=N/A time=00:19:58.40 bitrate=N/A speed=  20x    frame=29019 fps=480 q=-0.0 size=N/A time=00:20:10.33 bitrate=N/A speed=  20x    frame=29282 fps=481 q=-0.0 size=N/A time=00:20:21.30 bitrate=N/A speed=  20x    frame=29565 fps=481 q=-0.0 size=N/A time=00:20:33.10 bitrate=N/A speed=20.1x    frame=29855 fps=482 q=-0.0 size=N/A time=00:20:45.20 bitrate=N/A speed=20.1x    frame=30127 fps=482 q=-0.0 size=N/A time=00:20:56.54 bitrate=N/A speed=20.1x    frame=30389 fps=482 q=-0.0 size=N/A time=00:21:07.51 bitrate=N/A speed=20.1x    frame=30656 fps=483 q=-0.0 size=N/A time=00:21:18.61 bitrate=N/A speed=20.1x    frame=30911 fps=483 q=-0.0 size=N/A time=00:21:29.24 bitrate=N/A speed=20.1x    frame=31217 fps=484 q=-0.0 size=N/A time=00:21:42.00 bitrate=N/A speed=20.2x    frame=31488 fps=484 q=-0.0 size=N/A time=00:21:53.31 bitrate=N/A speed=20.2x    frame=31743 fps=484 q=-0.0 size=N/A time=00:22:03.94 bitrate=N/A speed=20.2x    frame=32041 fps=485 q=-0.0 size=N/A time=00:22:16.37 bitrate=N/A speed=20.2x    frame=32318 fps=485 q=-0.0 size=N/A time=00:22:27.92 bitrate=N/A speed=20.2x    frame=32591 fps=486 q=-0.0 size=N/A time=00:22:39.31 bitrate=N/A speed=20.3x    frame=32879 fps=486 q=-0.0 size=N/A time=00:22:51.32 bitrate=N/A speed=20.3x    frame=33156 fps=486 q=-0.0 size=N/A time=00:23:02.88 bitrate=N/A speed=20.3x    frame=33417 fps=487 q=-0.0 size=N/A time=00:23:13.76 bitrate=N/A speed=20.3x    frame=33682 fps=487 q=-0.0 size=N/A time=00:23:24.82 bitrate=N/A speed=20.3x    frame=33959 fps=487 q=-0.0 size=N/A time=00:23:36.37 bitrate=N/A speed=20.3x    [Parsed_psnr_10 @ 000001a3b4b634c0] PSNR y:48.933804 u:48.502230 v:48.363767 average:48.760174 min:39.961998 max:76.830322
[out#0/null @ 000001a3ae9e9b40] video:14630KiB audio:266276KiB subtitle:0KiB other streams:0KiB global headers:0KiB muxing overhead: unknown
frame=34047 fps=487 q=-0.0 Lsize=N/A time=00:23:40.04 bitrate=N/A speed=20.3x    
